<svg width="222" height="281" viewBox="0 0 222 281" fill="none" xmlns="http://www.w3.org/2000/svg">
<path d="M221.983 213C221.994 212.501 222 212.001 222 211.5C222 164.28 172.304 126 111 126C49.6964 126 0 164.28 0 211.5C0 212.001 0.00559466 212.501 0.0167385 213H0V280.5H222V213H221.983Z" fill="#8C6680"/>
<circle cx="111" cy="87" r="75" fill="#8C6680"/>
<ellipse cx="111" cy="153" rx="47" ry="30" fill="black" fill-opacity="0.24"/>
<ellipse cx="111" cy="145.5" rx="15" ry="9.5" fill="black" fill-opacity="0.6"/>
<circle cx="56" cy="123" r="31" fill="white" stroke="#323232" stroke-width="6"/>
<circle cx="165" cy="123" r="31" fill="white" stroke="#323232" stroke-width="6"/>
<line x1="88" y1="123" x2="134" y2="123" stroke="#323232" stroke-width="6"/>
<path d="M46.7124 130C45.2144 130 43.9695 128.771 44.3053 127.311C44.4544 126.662 44.6576 126.026 44.9134 125.408C45.5165 123.952 46.4004 122.629 47.5147 121.515C48.629 120.4 49.9519 119.517 51.4078 118.913C52.8637 118.31 54.4241 118 56 118C57.5759 118 59.1363 118.31 60.5922 118.913C62.0481 119.517 63.371 120.4 64.4853 121.515C65.5996 122.629 66.4835 123.952 67.0866 125.408C67.3424 126.026 67.5456 126.662 67.6947 127.311C68.0305 128.771 66.7856 130 65.2876 130L65.1572 130C63.7312 130 62.6204 128.801 62.0746 127.484V127.484C61.7442 126.686 61.2599 125.961 60.6493 125.351C60.0388 124.74 59.3139 124.256 58.5162 123.925C57.7185 123.595 56.8635 123.425 56 123.425C55.1365 123.425 54.2815 123.595 53.4838 123.925C52.6861 124.256 51.9612 124.74 51.3507 125.351C50.7401 125.961 50.2558 126.686 49.9254 127.484V127.484C49.3796 128.801 48.2688 130 46.8428 130L46.7124 130Z" fill="black"/>
<path d="M156.712 130C155.214 130 153.97 128.771 154.305 127.311C154.454 126.662 154.658 126.026 154.913 125.408C155.517 123.952 156.4 122.629 157.515 121.515C158.629 120.4 159.952 119.517 161.408 118.913C162.864 118.31 164.424 118 166 118C167.576 118 169.136 118.31 170.592 118.913C172.048 119.517 173.371 120.4 174.485 121.515C175.6 122.629 176.483 123.952 177.087 125.408C177.342 126.026 177.546 126.662 177.695 127.311C178.03 128.771 176.786 130 175.288 130L175.157 130C173.731 130 172.62 128.801 172.075 127.484V127.484C171.744 126.686 171.26 125.961 170.649 125.351C170.039 124.74 169.314 124.256 168.516 123.925C167.718 123.595 166.863 123.425 166 123.425C165.137 123.425 164.282 123.595 163.484 123.925C162.686 124.256 161.961 124.74 161.351 125.351C160.74 125.961 160.256 126.686 159.925 127.484V127.484C159.38 128.801 158.269 130 156.843 130L156.712 130Z" fill="black"/>
<line x1="75.7308" y1="161.654" x2="64.6538" y2="166.269" stroke="black" stroke-linecap="round"/>
<line x1="0.5" y1="-0.5" x2="12.5" y2="-0.5" transform="matrix(0.923077 0.384615 0.384615 -0.923077 147 161)" stroke="black" stroke-linecap="round"/>
<line x1="79.9296" y1="165.704" x2="69.7036" y2="174.07" stroke="black" stroke-linecap="round"/>
<line x1="0.5" y1="-0.5" x2="13.7127" y2="-0.5" transform="matrix(0.773957 0.633238 0.633238 -0.773957 143 165)" stroke="black" stroke-linecap="round"/>
<path d="M101 162.88C101 162.655 101.15 162.458 101.366 162.398L109.366 160.176C109.685 160.088 110 160.327 110 160.658V169.5C110 169.776 109.776 170 109.5 170H101.5C101.224 170 101 169.776 101 169.5V162.88Z" fill="white"/>
<path d="M112 160.694C112 160.352 112.334 160.111 112.658 160.219L120.658 162.886C120.862 162.954 121 163.145 121 163.36V169.5C121 169.776 120.776 170 120.5 170H112.5C112.224 170 112 169.776 112 169.5V160.694Z" fill="white"/>
<path d="M90 160.444C90.6667 161.63 93 164 97 164C102 164 101.5 160 111 160C120.5 160 118.5 164 125 164C130.2 164 131.833 161.63 132 160.444" stroke="black" stroke-width="2" stroke-linecap="round" stroke-linejoin="round"/>
<path d="M187 76C187 55.8435 178.993 36.5127 164.74 22.2599C150.487 8.00712 131.156 1.52177e-06 111 0C90.8436 -1.52177e-06 71.5127 8.00712 57.2599 22.2599C43.0071 36.5126 35 55.8435 35 76L111 76H187Z" fill="#5E5E5E"/>
<rect x="20" y="68" width="181" height="8" rx="4" fill="#363636"/>
<circle cx="111" cy="38" r="27" fill="#F4E55F"/>
<circle cx="111" cy="38" r="25" stroke="black" stroke-opacity="0.8" stroke-width="4"/>
</svg>
